<svg version="1.1" xmlns="http://www.w3.org/2000/svg" viewBox="0 0 2048 2048" width="1024" height="1024" preserveAspectRatio="none">
<defs>
<linearGradient id="basma-grad" x1="0" y1="0" x2="2048" y2="2048" gradientUnits="userSpaceOnUse">
<stop offset="0" stop-color="#42d392"/>
<stop offset="1" stop-color="#647eff"/>
</linearGradient>
</defs>
<path transform="translate(0,0)" fill="url(#basma-grad)" d="M 999.689 636.412 C 1021.71 633.969 1061.27 636.944 1083.14 640.187 C 1145.04 648.892 1203.78 672.928 1254.03 710.111 C 1261.67 715.773 1274.32 724.487 1279.58 731.971 C 1284.57 738.922 1286.37 747.659 1284.56 756.017 C 1282.93 763.72 1278.3 770.453 1271.68 774.716 C 1247.16 790.452 1227.92 766.267 1209.13 753.547 C 1175.32 730.59 1137.58 714.032 1097.8 704.694 C 1012.91 685.271 923.777 700.617 850.273 747.312 C 790.761 785.153 744.559 840.642 718.124 906.024 C 710.201 925.135 703.006 947.216 695.79 966.983 C 686.855 991.308 677.011 1015.29 666.28 1038.88 C 658.909 1055.09 650.976 1071.04 642.495 1086.7 C 625.378 1118.54 610.907 1142.2 602.405 1178.2 C 585.093 1251.5 625.715 1328.79 664.597 1389.47 C 773.856 1559.98 942.379 1684.46 1141.5 1727.92 C 1188.56 1737.72 1236.47 1742.84 1284.54 1743.19 C 1305.59 1743.31 1326.55 1741.63 1347.49 1741.85 C 1353.51 1741.91 1361.03 1744.34 1365.89 1748.14 C 1372.08 1753.01 1376.09 1760.14 1377.02 1767.97 C 1379.3 1787.83 1366.21 1800.05 1347.18 1801.57 C 1137.33 1816.81 930.145 1747.19 772.088 1608.31 C 693.529 1540.62 628.578 1458.6 580.706 1366.61 C 559.522 1325.91 541.752 1286.99 538.591 1240.15 C 537.005 1207.26 537.918 1170.78 548.599 1139.4 C 563.06 1096.92 590.349 1057.35 608.825 1016.31 C 647.831 929.669 662.145 846.468 726.496 773.199 C 799.118 690.513 889.773 644.359 999.689 636.412 z"/>
<path transform="translate(0,0)" fill="url(#basma-grad)" d="M 1019.49 519.378 C 1027.2 518.761 1043.2 519.395 1051.16 519.784 C 1114.86 523.255 1177.3 538.893 1235.11 565.854 C 1348.43 620.227 1438.35 713.627 1488.39 828.928 C 1496.64 848.211 1504.31 868.542 1510.33 888.624 C 1546.56 1009.46 1616.46 1111.14 1707.38 1197.75 C 1726.51 1215.82 1746.59 1232.85 1767.54 1248.77 C 1787.56 1264.07 1823.84 1279.9 1807.79 1311.97 C 1803.53 1320.5 1795.02 1324.42 1786.4 1327.11 C 1773.97 1327.33 1766.5 1323.51 1756.55 1316.39 C 1623.21 1221.02 1514.05 1092.04 1460.62 935.535 C 1454.31 917.059 1448.94 898.072 1442.21 879.769 C 1419.17 816.205 1382.32 758.541 1334.31 710.93 C 1264.81 642.394 1179.62 596.706 1082.28 583.572 C 1068.63 581.727 1054.91 580.566 1041.14 580.095 C 1032.47 579.84 1023.48 580.553 1014.88 579.51 C 991.47 576.669 982.036 548.431 996.113 530.621 C 1002.66 522.331 1009.65 520.419 1019.49 519.378 z"/>
<path transform="translate(0,0)" fill="url(#basma-grad)" d="M 1015.65 291.485 C 1041.36 291.463 1067.85 297.03 1059.62 332.574 C 1058 338.954 1047.73 349.812 1041.25 350.643 C 1016.72 353.789 990.313 352.872 965.608 355.158 C 890.473 362.053 817.126 382.056 748.893 414.26 C 613.232 478.285 502.529 585.344 434 718.786 C 416.053 753.853 399.692 792.724 387.789 830.273 C 363.864 905.751 311.187 976.064 238.267 1010.59 C 235.323 1011.66 232.483 1012.61 229.335 1012.92 C 220.689 1013.71 212.103 1010.87 205.64 1005.07 C 199.49 999.744 195.735 992.172 195.218 984.053 C 194.744 976.717 197.213 969.495 202.077 963.983 C 208.857 956.15 223.802 948.783 232.981 942.497 C 251.788 929.617 268.762 914.248 283.439 896.807 C 320.188 852.656 332.658 794.55 354.411 742.007 C 388.018 661.882 435.511 588.322 494.701 524.714 C 609.546 402.178 751.421 324.07 918.206 299.318 C 951.606 294.362 981.98 292.601 1015.65 291.485 z"/>
<path transform="translate(0,0)" fill="url(#basma-grad)" d="M 670.077 1212.24 C 699.603 1209.67 703.343 1225.17 712.607 1248.45 C 715.481 1255.67 719.267 1263.81 722.688 1270.84 C 738.349 1303.27 756.554 1334.42 777.133 1363.99 C 807.919 1408.26 850.488 1453.06 891.643 1487.6 C 1047.95 1621.31 1260.8 1667.94 1458.69 1611.82 C 1495.27 1601.76 1530.03 1588.86 1564.1 1572.36 C 1575.16 1567.01 1588.4 1560.78 1600.9 1563.36 C 1607.95 1564.75 1614.15 1568.92 1618.09 1574.92 C 1626.22 1587.36 1623.86 1604.35 1613.11 1614.4 C 1609.27 1617.98 1604.28 1620.48 1599.71 1623 C 1563.21 1640.4 1525.45 1655.01 1486.75 1666.7 C 1315.7 1718.1 1131.29 1700.15 973.362 1616.72 C 847.465 1548.87 744.601 1445.09 677.86 1318.6 C 667.143 1297.85 656.412 1276.5 648.651 1254.44 C 641.82 1235.03 650.111 1217.93 670.077 1212.24 z"/>
<path transform="translate(0,0)" fill="url(#basma-grad)" d="M 906.495 534.296 C 912.982 533.831 918.753 534.609 924.417 538.052 C 931.744 542.566 936.888 549.9 938.636 558.327 C 943.82 582.432 927.371 591.864 907.585 596.865 C 896.589 599.645 882.99 604.236 872.423 608.219 C 819.313 628.657 770.506 658.87 728.53 697.294 C 681.202 741.254 631.879 806.719 612.167 867.084 C 556.002 1039.08 463.327 1192.7 323.471 1309.44 C 309.338 1321.23 290.926 1338.97 272.261 1343.05 C 263.898 1343.2 258.484 1342.64 251.219 1337.77 C 244.751 1333.43 240.367 1326.61 239.109 1318.92 C 235.308 1295.95 254.922 1286.22 269.472 1274.43 C 280.601 1265.3 291.5 1255.9 302.158 1246.23 C 343.843 1208.26 381.864 1166.45 415.719 1121.36 C 456.186 1066.94 490.024 1007.88 516.515 945.449 C 530.867 911.076 541.291 876.558 554.804 842.448 C 571.75 799.797 594.406 759.642 622.15 723.082 C 678.487 647.096 754.96 588.386 842.921 553.592 C 860.41 546.636 887.964 536.958 906.495 534.296 z"/>
<path transform="translate(0,0)" fill="url(#basma-grad)" d="M 1135.58 302.186 C 1146.73 301.444 1164.96 305.368 1176.31 307.704 C 1244.14 321.909 1309.44 346.266 1370 379.951 C 1505.39 455.059 1613.61 570.982 1679.26 711.2 C 1715.6 788.202 1734.99 871.403 1811.84 921.286 C 1831.52 934.06 1866.36 946.695 1849.43 980.297 C 1845.75 987.616 1836.39 992.096 1828.56 993.962 C 1807.1 994.958 1789.86 980.279 1773.64 969.362 C 1696.3 917.287 1662.97 838.34 1631.92 754.494 C 1626.11 738.822 1611.29 713.391 1602.37 697.403 C 1572.77 644.75 1536.64 596.044 1494.84 552.443 C 1419.07 474.825 1325.54 416.823 1222.33 383.447 C 1196.8 375.439 1170.79 367.97 1144.29 363.892 C 1128.84 361.515 1113.83 354.436 1110.61 337.533 C 1107.21 319.696 1118.95 306.685 1135.58 302.186 z"/>
<path transform="translate(0,0)" fill="url(#basma-grad)" d="M 996.309 178.427 C 1143.23 173.489 1288.8 207.879 1417.98 278.041 C 1438.48 289.324 1460.14 300.8 1478.95 314.684 C 1492.88 324.964 1495.6 347.396 1483.54 360.074 C 1482.79 360.862 1481.99 361.611 1481.16 362.317 C 1479.54 363.705 1477.78 364.924 1475.91 365.956 C 1452.72 378.713 1422.06 350.624 1399.26 337.903 C 1281.45 272.162 1160.31 238.93 1025.23 238.954 C 897.679 238.491 772.102 270.422 660.266 331.753 C 635.299 345.199 612.259 361.355 588.136 376.004 C 568.671 387.825 543.771 376.342 541.909 352.863 C 540.321 332.843 553.668 324.804 568.503 315.097 C 582.248 306.114 596.122 297.516 610.334 289.339 C 727.831 220.995 860.455 182.885 996.309 178.427 z"/>
<path transform="translate(0,0)" fill="url(#basma-grad)" d="M 996.067 406.401 C 1039.27 402.846 1108.53 409.951 1150.82 418.547 C 1259.4 441.204 1359.46 493.827 1439.67 570.45 C 1448.46 578.851 1456.87 587.616 1465.61 596.098 C 1477.24 607.388 1486.12 619.373 1482.09 636.679 C 1478.87 650.542 1464.79 658.413 1451.08 657.049 C 1432.71 655.221 1421.03 638.14 1408.88 626.043 C 1400.72 617.99 1392.34 610.166 1383.74 602.58 C 1328.98 553.969 1252.09 508.668 1180.95 489.484 L 1179.78 489.177 C 1061 454.329 933.924 460.629 819.169 507.056 C 783.653 521.624 748.555 541.245 716.829 562.847 C 706.139 570.126 689.028 585.051 676.734 586.851 C 668.144 588.05 659.442 585.626 652.71 580.158 C 646.038 574.763 641.985 567.215 641.456 558.583 C 640.206 537.649 661.129 526.761 675.671 516.315 C 770.845 447.951 879.412 412.091 996.067 406.401 z"/>
<path transform="translate(0,0)" fill="url(#basma-grad)" d="M 581.386 611.364 C 606.229 614.074 619.422 633.386 608.238 657.65 C 605.948 662.618 601.977 666.06 598.592 670.256 C 580.992 692.075 564.702 715.45 550.452 739.599 C 531.98 770.966 516.254 803.87 503.45 837.946 C 493.894 862.745 485.694 888.027 475.933 912.767 C 450.555 977.087 418.425 1037.21 375.788 1091.77 C 351.646 1122.67 269.695 1210.67 234.22 1215 C 206.378 1213.13 194.461 1185.88 211.101 1165.16 C 218.544 1155.89 235.569 1145.37 245.529 1136.97 C 265.092 1120.49 283.616 1102.82 300.996 1084.05 C 347.236 1033.74 396.646 951.104 419.014 887.628 C 452.685 792.077 485.469 707.674 552.37 629.558 C 562.047 618.259 565.604 613.18 581.386 611.364 z"/>
<path transform="translate(0,0)" fill="url(#basma-grad)" d="M 1457.35 1108.24 C 1476.33 1106.79 1492.15 1117.25 1492.28 1137.61 C 1491.88 1151.9 1486.93 1167.4 1482.74 1180.99 C 1423.34 1373.56 1241.66 1525.34 1035.25 1525.06 C 1008.21 1525.64 987.454 1508.26 1001.38 1479.94 C 1010.57 1461.23 1036.49 1466.4 1054.65 1464.89 C 1081.25 1462.94 1107.58 1458.28 1133.23 1450.97 C 1256.47 1414.92 1351.39 1327.79 1405.04 1211.99 C 1412.32 1196.14 1418.53 1179.81 1423.65 1163.13 C 1430.73 1140.21 1430.91 1115.97 1457.35 1108.24 z"/>
<path transform="translate(0,0)" fill="url(#basma-grad)" d="M 793.66 1111.25 C 822.058 1109.6 827.323 1135.5 838.79 1155.6 C 861.126 1194.74 895.184 1225.07 935.646 1244.51 C 984.338 1267.91 1040.3 1271.14 1091.36 1253.49 C 1148.53 1233.43 1196.51 1190.45 1220.87 1135.56 C 1225.45 1125.25 1231.66 1116.39 1242.98 1112.74 C 1250.63 1110.35 1258.91 1111.1 1266.01 1114.83 C 1273.14 1118.45 1278.52 1124.78 1280.94 1132.4 C 1286.08 1148.89 1274.61 1166.13 1266.8 1180.44 C 1264.78 1184.02 1262.7 1187.56 1260.56 1191.07 C 1222.57 1252.79 1157.36 1301.73 1086.67 1318.35 C 1016.31 1335.1 942.171 1322.78 881.019 1284.16 C 838.913 1258.12 804.36 1221.51 780.801 1177.97 C 768.043 1153.82 754.839 1119.75 793.66 1111.25 z"/>
<path transform="translate(0,0)" fill="url(#basma-grad)" d="M 1521.86 702.303 C 1528.26 701.621 1534.53 701.024 1540.75 703.16 C 1569.17 712.925 1609.9 835.833 1621.84 866.43 C 1631.43 891.024 1641.08 915.474 1653.23 938.934 C 1675.56 982.992 1704.51 1023.37 1739.06 1058.66 C 1757.82 1078.16 1778.21 1096.01 1800.03 1112.01 C 1812.5 1121.22 1834.21 1132.38 1840.54 1145.87 C 1849.4 1164.75 1839.11 1181.37 1821.38 1188.36 C 1801.24 1190.78 1788.06 1178.6 1772.45 1167.86 C 1760.33 1159.51 1748.52 1150.71 1737.18 1141.32 C 1667.27 1082.31 1612.35 1007.56 1576.93 923.211 C 1561.51 885.945 1549.03 845.658 1533.5 808.213 C 1525.25 788.59 1514.44 770.168 1505.21 751.026 C 1495.18 730.236 1499.64 711.183 1521.86 702.303 z"/>
<path transform="translate(0,0)" fill="url(#basma-grad)" d="M 445.461 1285.09 C 469.37 1284.15 477.162 1293.68 485.543 1314.95 C 493.428 1334.98 501.457 1354.7 508.903 1374.93 C 551.338 1490.23 569.192 1618.99 654.333 1713.58 C 667.429 1728.13 687.023 1742.84 676.5 1765.73 C 672.276 1774.92 664.092 1779.24 655.024 1782.58 C 631.736 1784.81 623.98 1771.12 609.923 1756.12 C 506.642 1645.9 491.932 1493.19 436.677 1359.22 C 424.706 1330.19 406.02 1302.04 445.461 1285.09 z"/>
<path transform="translate(0,0)" fill="url(#basma-grad)" d="M 1541.5 372.351 C 1546.81 372.584 1552.16 373.089 1556.86 375.757 C 1575.24 386.193 1594.71 406.997 1609.9 422.079 C 1706.84 517.875 1779.37 635.54 1821.4 765.187 C 1828.96 788.414 1826.1 806.057 1799.61 813.05 C 1765.91 813.663 1764.04 787.886 1754.73 761.309 C 1748.66 743.972 1741.99 726.85 1734.73 709.973 C 1701.47 633.449 1656.11 562.781 1600.38 500.681 C 1584.74 483.223 1568.35 466.464 1551.23 450.454 C 1541.72 441.473 1530.23 432.002 1521.41 422.728 C 1504.02 404.437 1516.87 376.131 1541.5 372.351 z"/>
<path transform="translate(0,0)" fill="url(#basma-grad)" d="M 1583.25 1257.4 C 1608.71 1252.67 1633.81 1269 1625.04 1296.59 C 1618.87 1316.39 1600.27 1317.11 1582.71 1318.09 C 1545.12 1320.2 1531.92 1347.91 1513.64 1376.22 C 1506.58 1387.34 1498.96 1398.09 1490.81 1408.43 C 1431.26 1486.35 1354.17 1549.12 1265.8 1591.64 L 1264.51 1592.04 C 1261.85 1592.9 1259.61 1593.72 1256.79 1594.05 C 1247.82 1595.08 1238.82 1592.31 1231.97 1586.42 C 1225.82 1581.19 1222.29 1574.84 1221.44 1566.74 C 1218.94 1542.77 1248.45 1532.17 1266.96 1521.75 C 1333.93 1484.52 1397.14 1432.72 1442.7 1370.73 C 1487.59 1309.67 1497.9 1265.8 1583.25 1257.4 z"/>
<path transform="translate(0,0)" fill="url(#basma-grad)" d="M 474.43 393.204 C 482.76 392.477 488.971 392.945 496.35 397.24 C 503.24 401.191 508.256 407.742 510.271 415.425 C 513.683 428.502 507.88 440.667 498.41 449.417 C 405.591 535.144 336.359 642.215 293.637 760.944 C 285.685 783.044 285.584 808.756 259.819 816.034 C 251.631 816.794 244.782 816.173 237.517 812.014 C 231.325 808.469 226.62 802.916 224.82 795.944 C 216.099 762.171 282.501 631.835 301.73 598.639 C 339.34 534.218 385.182 474.971 438.099 422.393 C 448.975 411.487 459.837 397.078 474.43 393.204 z"/>
<path transform="translate(0,0)" fill="url(#basma-grad)" d="M 686.117 1613.08 C 707.434 1611.82 718.94 1627.35 733.85 1640.73 C 743.583 1649.56 753.57 1658.1 763.799 1666.34 C 800.552 1695.98 839.513 1722.78 880.343 1746.49 C 915.546 1766.85 952.428 1784.16 990.585 1798.23 C 1008.76 1805.07 1027.74 1810.68 1045.56 1818.13 C 1053.24 1821.33 1059.32 1828.03 1061.87 1836.08 C 1064.37 1843.9 1063.46 1852.4 1059.38 1859.52 C 1054.3 1868.42 1047.24 1872.29 1037.8 1874.96 C 1006.56 1874.61 913.997 1833.11 882.895 1816.9 C 856.648 1803.38 831.12 1788.51 806.415 1772.35 C 769.861 1748.43 734.883 1722.19 701.697 1693.79 C 690.938 1684.68 679.369 1675.5 669.915 1665.08 C 650.872 1644.09 660.628 1620.9 686.117 1613.08 z"/>
<path transform="translate(0,0)" fill="url(#basma-grad)" d="M 1678.82 1398.43 C 1702.88 1397.19 1752.54 1395.62 1751.97 1430.22 C 1751.79 1439.13 1748 1447.59 1741.45 1453.64 C 1728.1 1465.86 1710.32 1459.12 1692.59 1458.75 C 1627.17 1457.37 1578.26 1482.78 1532.28 1526.85 C 1524.85 1534.25 1516.93 1543.6 1506.48 1544.13 C 1475.05 1545.73 1460.65 1511.56 1483.27 1489.38 C 1492.42 1480.42 1500.61 1473.34 1509.86 1465.4 C 1559.14 1423.02 1614.31 1402.34 1678.82 1398.43 z"/>
<path transform="translate(0,0)" fill="url(#basma-grad)" d="M 332.221 1392.34 C 367.629 1389.07 369.068 1421.64 379.08 1447.08 C 391.08 1477.4 407.38 1505.85 427.48 1531.53 C 440.359 1548.07 455.259 1564.14 470.664 1578.95 C 483.403 1591.2 492.519 1603.22 483.366 1622.04 C 478.998 1631.02 471.953 1635.15 462.492 1638 C 444.859 1640.16 436.095 1632.15 424.532 1620.51 C 382.299 1577.97 346.392 1529.21 323.456 1473.56 C 318.003 1461.3 313.462 1449.2 309.465 1436.4 C 302.922 1415.45 308.783 1397.49 332.221 1392.34 z"/>
</svg>
